Coordinates
version=1
nRows=6
nColumns=63
inDegrees=yes

Units are S.I. units (second, meters, Newtons, ...)
If the header above contains a line with 'inDegrees', this indicates whether rotational values are in degrees (yes) or radians (no).

endheader
time	pelvis_tilt	pelvis_list	pelvis_rotation	pelvis_tx	pelvis_ty	pelvis_tz	hip_flexion_r	hip_adduction_r	hip_rotation_r	knee_angle_r	knee_angle_r_beta	ankle_angle_r	subtalar_angle_r	mtp_angle_r	hip_flexion_l	hip_adduction_l	hip_rotation_l	knee_angle_l	knee_angle_l_beta	ankle_angle_l	subtalar_angle_l	mtp_angle_l	L5_S1_Flex_Ext	L5_S1_Lat_Bending	L5_S1_axial_rotation	L4_L5_Flex_Ext	L4_L5_Lat_Bending	L4_L5_axial_rotation	L3_L4_Flex_Ext	L3_L4_Lat_Bending	L3_L4_axial_rotation	L2_L3_Flex_Ext	L2_L3_Lat_Bending	L2_L3_axial_rotation	L1_L2_Flex_Ext	L1_L2_Lat_Bending	L1_L2_axial_rotation	L1_T12_Flex_Ext	L1_T12_Lat_Bending	L1_T12_axial_rotation	Abs_r3	Abs_r2	Abs_r1	Abs_t1	Abs_t2	neck_flexion	neck_bending	neck_rotation	arm_flex_r	arm_add_r	arm_rot_r	elbow_flex_r	pro_sup_r	wrist_flex_r	wrist_dev_r	arm_flex_l	arm_add_l	arm_rot_l	elbow_flex_l	pro_sup_l	wrist_flex_l	wrist_dev_l
     23.20000000	     -1.42951556	     -3.12367999	     11.83129058	      2.41139572	      0.83294592	      0.28902195	     22.73390065	     -0.15031658	    -26.49220381	      7.82789020	      0.13662246	     -5.47489453	     -5.06473313	      0.00000000	    -10.18518464	     -7.16204178	     -1.08288947	     21.59372448	      0.37688159	     20.83202633	      4.77612210	      0.00000000	      0.01925184	      0.27110854	     -3.90641167	      0.03575260	      0.36057436	     -4.15056240	      0.03162886	      0.65917331	     -4.15056240	      0.02200293	      0.65917331	     -3.41811021	      0.01787726	      0.55284454	     -3.17395948	      0.01100050	      0.41994713	     -2.92980875	      0.13751400	      3.06683407	    -21.72628978	      0.00000000	      0.00000000	      0.00000000	      0.00000000	      0.00000000	    -10.80905440	     -6.56310919	     -4.55506159	     29.58585807	     34.56003903	      0.00000000	      5.00000014	      2.57059377	    -10.51765404	      6.54775653	     38.06641519	     47.17811377	      0.00000000	      5.00000014
     23.23333333	     -0.90767117	     -3.26957691	     11.29422328	      2.44775100	      0.83284953	      0.29465649	     21.48675698	      0.97634487	    -22.99597075	     10.37426309	      0.18106505	     -4.10237128	    -11.11674767	      0.00000000	     -9.85365300	     -7.54068932	      1.66763346	     27.44077195	      0.47893182	     15.30865780	     -2.15649151	      0.00000000	      0.01606529	      0.28681009	     -3.71383593	      0.02983484	      0.38145742	     -3.94595067	      0.02639366	      0.69735005	     -3.94595067	      0.01836102	      0.69735005	     -3.24960643	      0.01491823	      0.58486313	     -3.01749169	      0.00917970	      0.44426883	     -2.78537694	      0.11475274	      3.24445308	    -20.65524127	      0.00000000	      0.00000000	      0.00000000	      0.00000000	      0.00000000	    -10.47508605	     -4.88011628	     -7.78610848	     28.80767942	     33.77408473	      0.00000000	      5.00000014	      0.98445878	     -9.98932840	      7.56360429	     37.28360928	     47.35705537	      0.00000000	      5.00000014
     23.26666667	     -0.43711078	     -3.22923771	     10.72589756	      2.48373824	      0.83390761	      0.30033087	     20.14989886	      1.86463034	    -20.14569279	     13.31346590	      0.23236381	     -2.15540349	    -15.73452288	      0.00000000	     -8.33932288	     -7.60416102	      3.26150984	     34.47495577	      0.60170149	      7.11864794	     -8.03368436	      0.00000000	      0.01488061	      0.28570453	     -3.45107371	      0.02763478	      0.37998702	     -3.66676582	      0.02444735	      0.69466199	     -3.66676582	      0.01700705	      0.69466199	     -3.01968950	      0.01381813	      0.58260868	     -2.80399739	      0.00850278	      0.44255632	     -2.58830528	      0.10629069	      3.23194678	    -19.19383666	      0.00000000	      0.00000000	      0.00000000	      0.00000000	      0.00000000	    -10.05118829	     -3.57455537	     -9.81514214	     28.11150922	     33.27847719	      0.00000000	      5.00000014	     -0.91250720	     -9.36963998	      8.25539457	     36.73553520	     47.41187578	      0.00000000	      5.00000014
     23.30000000	     -0.17246097	     -2.92005767	      9.95102771	      2.51835693	      0.83547827	      0.30649634	     18.67602618	      2.56293564	    -17.59985925	     15.81150006	      0.27596274	      0.22384019	    -18.08926119	      0.00000000	     -5.42824892	     -7.19446041	      4.12603416	     42.18502366	      0.73626756	     -2.83536267	    -13.27124110	      0.00000000	      0.01386419	      0.25584366	     -3.00810900	      0.02574719	      0.34027207	     -3.19611582	      0.02277748	      0.62205827	     -3.19611582	      0.01584539	      0.62205827	     -2.63209538	      0.01287429	      0.52171639	     -2.44408857	      0.00792200	      0.39630183	     -2.25608175	      0.09903054	      2.89415464	    -16.73019985	      0.00000000	      0.00000000	      0.00000000	      0.00000000	      0.00000000	    -10.03180916	     -2.51976957	    -11.11748670	     28.02865082	     32.95258399	      0.00000000	      5.00000014	     -2.75216201	     -8.91949152	      8.85531541	     36.81060711	     47.40714938	      0.00000000	      5.00000014
     23.33333333	     -0.12778464	     -2.47063532	      9.04738162	      2.55099541	      0.83704930	      0.31276043	     16.98659633	      3.17224333	    -15.32881154	     17.35777563	      0.30295034	      2.59016603	    -18.68940673	      0.00000000	     -1.26009440	     -6.63426618	      4.25844048	     49.84070980	      0.86988449	    -11.99554117	    -16.83615479	      0.00000000	      0.01182426	      0.21444950	     -2.43981493	      0.02195883	      0.28521784	     -2.59230336	      0.01942608	      0.52141252	     -2.59230336	      0.01351395	      0.52141252	     -2.13483806	      0.01098001	      0.43730543	     -1.98234963	      0.00675638	      0.33218228	     -1.82986120	      0.08445950	      2.42589568	    -13.56951868	      0.00000000	      0.00000000	      0.00000000	      0.00000000	      0.00000000	    -10.15302954	     -1.44108403	    -13.84093361	     28.79289503	     32.27774250	      0.00000000	      5.00000014	     -4.34995311	     -8.81276816	      9.83316857	     37.31124283	     47.10717936	      0.00000000	      5.00000014
     23.36666667	     -0.22022811	     -2.06760515	      8.13048999	      2.58211883	      0.83866214	      0.31879313	     14.96020881	      3.87493673	    -12.96437504	     17.74895428	      0.30977769	      4.31861915	    -18.81801970	      0.00000000	      3.80557225	     -6.22737358	      3.97022098	     56.80215463	      0.99138462	    -18.31052625	    -18.47006209	      0.00000000	      0.01096774	      0.17269889	     -1.83351513	      0.02036819	      0.22968953	     -1.94810983	      0.01801890	      0.41990009	     -1.94810983	      0.01253503	      0.41990009	     -1.60432574	      0.01018464	      0.35216759	     -1.48973104	      0.00626697	      0.26751059	     -1.37513635	      0.07834146	      1.95360444	    -10.19746110	      0.00000000	      0.00000000	      0.00000000	      0.00000000	      0.00000000	    -10.17929696	     -1.19010390	    -13.66953636	     29.60494137	     32.29891800	      0.00000000	      5.00000014	     -5.75203834	     -8.69011957	      9.94236912	     37.79042666	     47.06045735	      0.00000000	      5.00000014
